#!OML:ASF F:\twosubjects\two\wednesday\Session 1\rory1.ASF
:FULLY-SPECIFIED
:DEGREES
132
root -1.06386 18.4133 4.97656 -171.03 0.50825 -177.549
lowerback 3.68988 -1.80503 0.552553
upperback 2.44022 -2.18125 3.40677
thorax 0.550752 -1.02061 3.25995
lowerneck -7.70785 -7.66808 -6.69402
upperneck 16.5447 -10.0368 5.7218
head 6.95395 -4.62492 2.07984
rclavicle -8.15017e-015 3.18055e-014
rhumerus -58.2585 -41.0295 -44.6707
rradius 33.2341
rwrist -44.6048
rhand -36.9716 35.3574
rfingers 7.12502
rthumb -10.0472 5.61724
lclavicle -8.15017e-015 3.18055e-014
lhumerus -40.6721 23.3808 72.0888
lradius 20.5859
lwrist -11.3333
lhand -18.5517 16.397
lfingers 7.12502
lthumb 7.73788 46.2355
rfemur -13.0522 8.96064 26.8736
rtibia 29.1879
rfoot -15.2594 -3.91322
rtoes 10.8187
lfemur -31.6128 7.23616 -16.4242
ltibia 53.0852
lfoot -13.6516 5.83583
ltoes -15.7587
133
root -1.08554 18.4408 4.81782 -170.968 1.03347 -177.388
lowerback 3.70827 -1.72745 0.662624
upperback 2.61189 -2.07249 3.33446
thorax 0.704264 -0.962888 3.11811
lowerneck -7.97929 -7.4356 -6.45058
upperneck 16.2368 -9.72397 5.51277
head 6.85783 -4.48863 1.99781
rclavicle 2.50469e-014 2.94201e-014
rhumerus -58.3113 -41.2028 -44.5188
rradius 32.8544
rwrist -44.3424
rhand -36.3314 35.0782
rfingers 7.12502
rthumb -9.42955 5.30913
lclavicle 2.50469e-014 2.94201e-014
lhumerus -41.1123 23.5335 71.7924
lradius 20.8728
lwrist -10.3024
lhand -19.4869 16.9285
lfingers 7.12502
lthumb 6.83514 46.7982
rfemur -12.3408 9.18149 27.0122
rtibia 28.7376
rfoot -14.5528 -3.60215
rtoes 10.0402
lfemur -32.0464 6.88721 -16.0283
ltibia 51.1482
lfoot -14.0693 6.68023
ltoes -13.7184
134
root -1.10887 18.4568 4.66122 -170.899 1.68594 -177.264
lowerback 3.88846 -1.61592 0.713749
upperback 2.6516 -1.91935 3.24179
thorax 0.63166 -0.885093 2.99378
lowerneck -8.03423 -7.12935 -6.23584
upperneck 15.8394 -9.32791 5.41492
head 6.69871 -4.30755 1.97248
rclavicle 1.08338e-014 -3.26007e-014
rhumerus -58.4619 -41.1562 -44.3301
rradius 32.533
rwrist -44.2106
rhand -36.384 34.9225
rfingers 7.12502
rthumb -9.48033 5.15579
lclavicle 1.08338e-014 -3.26007e-014
lhumerus -41.5533 23.7132 71.3603
lradius 20.8433
lwrist -9.59839
lhand -20.1991 17.9373
lfingers 7.12502
lthumb 6.14759 47.8281
rfemur -11.6008 9.27971 27.0643
rtibia 28.2479
rfoot -14.3667 -3.28917
rtoes 8.60207
lfemur -32.3383 6.66692 -15.6788
ltibia 48.9696
lfoot -14.4703 7.43054
ltoes -10.081
135
root -1.1323 18.4626 4.51097 -170.65 2.37564 -177.24
lowerback 3.99327 -1.53591 0.609778
upperback 2.62681 -1.81839 3.18919
thorax 0.544509 -0.837635 2.99787
lowerneck -8.15072 -6.79055 -6.1876
upperneck 15.4503 -8.85997 5.29208
head 6.55737 -4.10315 1.96914
rclavicle -2.0276e-014 2.70347e-014
rhumerus -58.3076 -41.2257 -44.0931
rradius 32.0335
rwrist -43.7624
rhand -37.1984 34.95
rfingers 7.12502
rthumb -10.2661 5.22049
lclavicle -2.0276e-014 2.70347e-014
lhumerus -42.0435 23.7663 71.0986
lradius 20.9283
lwrist -8.87581
lhand -20.3283 17.007
lfingers 7.12502
lthumb 6.02283 46.9014
rfemur -11.0201 9.39359 26.9375
rtibia 27.7017
rfoot -14.515 -2.92575
rtoes 8.25653
lfemur -32.6881 6.55966 -15.4613
ltibia 46.547
lfoot -14.8552 7.85709
ltoes -9.70475
136
root -1.15518 18.4857 4.35408 -170.332 3.02035 -177.229
lowerback 3.91304 -1.48058 0.540683
upperback 2.60511 -1.75669 3.12644
thorax 0.564097 -0.810762 2.96796
lowerneck -8.23002 -6.5449 -6.14007
upperneck 15.1511 -8.50345 5.07358
head 6.44225 -3.95652 1.92498
rclavicle -3.23025e-014 -7.95139e-015
rhumerus -58.1651 -41.5542 -43.6751
rradius 31.4198
rwrist -43.0488
rhand -37.6781 34.3708
rfingers 7.12502
rthumb -10.7288 4.66472
lclavicle -3.23025e-014 -7.95139e-015
lhumerus -42.6611 24.0037 70.7536
lradius 21.2077
lwrist -8.47007
lhand -20.0196 16.5571
lfingers 7.12502
lthumb 6.32094 46.4427
rfemur -10.543 9.51409 26.7367
rtibia 27.0944
rfoot -14.3507 -2.18796
rtoes 9.36529
lfemur -32.9298 6.30896 -15.2015
ltibia 43.9611
lfoot -15.3431 8.08397
ltoes -9.10515
137
root -1.18337 18.5075 4.18859 -170.215 3.65209 -177.109
lowerback 3.94176 -1.40927 0.716964
upperback 2.66855 -1.65832 3.00913
thorax 0.599478 -0.759179 2.74449
lowerneck -8.32371 -6.31217 -5.98073
upperneck 14.8461 -8.18418 4.87731
head 6.32719 -3.8185 1.86598
rclavicle -1.40143e-014 -1.31198e-014
rhumerus -58.2781 -41.9898 -43.1254
rradius 30.8714
rwrist -42.4239
rhand -37.5724 33.9716
rfingers 7.12502
rthumb -10.6268 4.2603
lclavicle -1.40143e-014 -1.31198e-014
lhumerus -43.1348 24.1131 70.4761
lradius 21.4866
lwrist -8.00204
lhand -19.4916 16.6254
lfingers 7.12502
lthumb 6.83057 46.4952
rfemur -9.80882 9.69376 26.6531
rtibia 26.4565
rfoot -14.0662 -1.56548
rtoes 10.1385
lfemur -32.86 5.69415 -14.7251
ltibia 41.3205
lfoot -15.519 8.64927
ltoes -7.94323
138
root -1.21197 18.5224 4.0252 -170.113 4.25307 -177.057
lowerback 3.89021 -1.31179 0.782971
upperback 2.78371 -1.53217 2.86453
thorax 0.735124 -0.695366 2.55173
lowerneck -8.34152 -6.03219 -5.72609
upperneck 14.3513 -7.81918 4.68314
head 6.134 -3.65759 1.79981
rclavicle -1.93815e-014 3.02153e-014
rhumerus -58.3456 -42.2741 -42.7374
rradius 30.4019
rwrist -42.0303
rhand -36.9727 34.8125
rfingers 7.12502
rthumb -10.0483 5.07241
lclavicle -1.93815e-014 3.02153e-014
lhumerus -43.3973 24.0856 70.2602
lradius 21.5852
lwrist -7.60554
lhand -19.1451 16.0063
lfingers 7.12502
lthumb 7.16514 45.865
rfemur -8.96032 9.99701 26.5378
rtibia 25.7423
rfoot -13.7946 -1.33031
rtoes 9.64872
lfemur -32.8303 4.92411 -14.2733
ltibia 38.655
lfoot -15.3515 9.89816
ltoes -10.0357
139
root -1.23572 18.539 3.87565 -169.736 4.64132 -176.717
lowerback 3.76473 -1.23106 1.03134
upperback 2.79834 -1.4186 2.89256
thorax 0.810115 -0.634196 2.43491
lowerneck -8.5033 -5.82376 -5.46282
upperneck 13.884 -7.53098 4.35613
head 5.97528 -3.54153 1.67874
rclavicle -1.19271e-014 3.97569e-015
rhumerus -58.0684 -42.4024 -42.6964
rradius 29.9501
rwrist -41.5551
rhand -37.2828 35.5385
rfingers 7.12502
rthumb -10.3474 5.81303
lclavicle -1.19271e-014 3.97569e-015
lhumerus -43.5925 24.0278 70.1666
lradius 21.6899
lwrist -7.26294
lhand -19.4321 15.1678
lfingers 7.12502
lthumb 6.88805 45.0357
rfemur -8.38026 10.1216 26.7465
rtibia 24.9448
rfoot -13.3793 -1.10958
rtoes 8.38965
lfemur -33.1515 4.20631 -13.4714
ltibia 35.9647
lfoot -14.9403 11.5545
ltoes -12.2397
140
root -1.2571 18.5562 3.72266 -169.279 4.95448 -176.284
lowerback 3.66098 -1.15963 1.3689
upperback 2.71127 -1.3145 2.96126
thorax 0.768555 -0.577468 2.31189
lowerneck -8.65956 -5.65435 -5.29501
upperneck 13.5383 -7.29355 4.11498
head 5.86549 -3.44436 1.59488
rclavicle 9.93923e-016 5.48646e-014
rhumerus -57.834 -42.6226 -42.5152
rradius 29.4372
rwrist -41.0025
rhand -38.4132 35.4992
rfingers 7.12502
rthumb -11.4378 5.83119
lclavicle 9.93923e-016 5.48646e-014
lhumerus -43.9018 23.5155 70.3444
lradius 22.0938
lwrist -6.61698
lhand -19.5014 15.4287
lfingers 7.12502
lthumb 6.82116 45.2988
rfemur -7.94303 10.1658 27.0319
rtibia 24.1471
rfoot -12.8446 -0.707375
rtoes 8.03746
lfemur -33.4716 3.49101 -12.5233
ltibia 33.2023
lfoot -14.6455 13.0244
ltoes -12.3754
